<?xml version="1.0" standalone="no"?>
<!DOCTYPE svg PUBLIC "-//W3C//DTD SVG 20010904//EN"
 "http://www.w3.org/TR/2001/REC-SVG-20010904/DTD/svg10.dtd">
<svg version="1.0" xmlns="http://www.w3.org/2000/svg"
 width="700.000000pt" height="700.000000pt" viewBox="0 0 700.000000 700.000000"
 preserveAspectRatio="xMidYMid meet">
<metadata>
Created by potrace 1.14, written by Peter Selinger 2001-2017
</metadata>
<g transform="translate(0.000000,700.000000) scale(0.100000,-0.100000)"
fill="#000000" stroke="none">
<path d="M1377 5484 c-1 -1 -38 -5 -82 -9 -44 -3 -85 -12 -91 -18 -23 -26
-108 -265 -129 -366 -2 -9 -19 -81 -39 -161 -19 -80 -37 -158 -40 -175 -6 -32
-12 -51 -326 -1150 -116 -407 -229 -796 -250 -865 -115 -365 -144 -630 -91
-833 52 -201 190 -349 386 -412 134 -44 74 -43 2995 -41 1526 1 2798 5 2825 9
32 4 56 14 67 27 41 50 112 308 120 435 3 48 2 50 -32 66 -19 10 -64 20 -100
24 -84 9 -4174 19 -4980 12 -159 -1 -225 5 -313 28 -78 20 -111 39 -161 88
-47 48 -65 95 -61 165 2 43 46 219 80 328 8 22 27 92 44 155 17 63 64 238 106
389 130 474 186 682 210 770 12 47 43 159 68 250 93 339 212 785 223 835 2 11
28 111 57 223 61 229 65 202 -38 222 -41 7 -440 11 -448 4z"/>
<path d="M2202 5482 c-32 -5 -57 -49 -82 -146 -59 -223 -160 -589 -227 -825
-41 -144 -76 -270 -78 -280 -2 -9 -83 -299 -179 -645 -96 -346 -182 -670 -191
-721 -15 -91 -21 -244 -10 -296 37 -186 146 -324 292 -369 67 -20 120 -27 268
-35 50 -2 140 -8 200 -12 138 -10 432 -10 465 -1 45 13 78 92 156 368 44 155
43 154 50 147 3 -3 12 -36 20 -73 47 -228 199 -369 444 -413 106 -19 127 -21
325 -26 105 -3 264 -8 355 -11 323 -11 342 -9 364 34 13 25 59 186 70 242 2
14 11 59 19 100 22 110 27 154 19 165 -17 25 -62 33 -158 29 -54 -2 -232 -5
-395 -7 -340 -2 -334 -4 -324 72 3 24 8 47 10 50 1 3 6 22 9 41 3 19 14 64 25
100 70 233 248 891 267 985 2 11 6 31 9 44 11 56 39 140 62 188 21 42 33 55
61 64 33 11 37 10 58 -14 16 -18 21 -35 18 -54 -2 -16 -7 -44 -10 -63 -3 -19
-57 -222 -121 -450 -230 -829 -213 -759 -191 -780 11 -10 36 -20 56 -23 43 -7
251 -1 302 8 224 39 387 147 462 305 31 65 47 101 53 120 1 3 11 39 24 80 12
41 33 109 46 150 93 298 125 454 130 640 4 160 -9 233 -60 336 -82 167 -218
265 -452 325 -72 18 -116 23 -243 23 -212 1 -293 -22 -462 -130 -234 -150
-347 -305 -451 -614 -43 -130 -59 -185 -128 -445 -17 -66 -57 -203 -90 -305
-97 -308 -137 -491 -126 -575 3 -21 3 -43 1 -49 -8 -20 -613 -7 -638 13 -28
24 25 265 134 606 68 212 110 371 235 890 20 83 38 159 41 170 13 62 84 307
139 480 111 347 130 418 141 511 6 51 6 51 -27 65 -26 10 -112 13 -349 14
-173 0 -325 -1 -338 -3z"/>
<path d="M5815 4818 c-16 -4 -52 -11 -80 -14 -143 -17 -306 -86 -416 -177 -68
-56 -136 -149 -179 -242 -68 -150 -266 -798 -315 -1035 -2 -8 -19 -80 -38
-160 -103 -423 -109 -456 -110 -565 -1 -138 39 -233 140 -325 77 -70 217 -144
303 -160 74 -14 434 -11 541 5 219 33 389 110 501 229 81 86 174 261 228 426
34 108 38 119 86 295 63 232 66 243 109 385 180 597 201 780 111 961 -85 170
-249 285 -496 348 -120 30 -324 46 -385 29z m185 -593 c21 -25 3 -121 -61
-320 -23 -71 -65 -222 -95 -335 -29 -113 -71 -268 -93 -345 -22 -77 -47 -176
-56 -220 -9 -44 -30 -124 -47 -177 -27 -88 -33 -98 -61 -107 -49 -18 -95 -14
-107 9 -17 32 10 179 60 330 41 122 224 784 256 925 45 197 60 234 93 241 14
3 30 7 35 8 33 8 65 4 76 -9z"/>
</g>
</svg>
