<svg xmlns="http://www.w3.org/2000/svg" width="160" height="48.794" viewBox="0 0 160 48.794"><g transform="translate(0 0)"><path d="M53.8,37.948l-4,14.683-1.579,5.737c-.323,1.093-.811,2.392-.158,3.315,1.569,2.216,6.325,1.183,10,1.354L193,63.511a5.083,5.083,0,0,1,1.943.408,11.065,11.065,0,0,1-1.257,4.86,37.233,37.233,0,0,1-4.852.224h-.1c-.19,0-.368,0-.528,0L52.064,68.631c-4.564-.143-8.284.715-10.578-2.421-2.145-2.932-.882-7.422.21-10.736l4.895-17.1c.733-2.511,1.278-6.184,2.421-8.367l1.42-.158c.973-.016,1.922-.084,2.853-.083a9.75,9.75,0,0,1,2.569.293Z" transform="translate(-40.319 -29.761)" fill="#fff"/><path d="M64.3,30.422c.852-.043,4.56-.13,4.842.316.238.585-1.1,4.583-1.369,5.369-1.6,4.741-2.38,9.847-3.894,14.525-.309.954-1.79,5.51-1.421,6.158,1.68.345,4.463.089,6.158.211l.052-.158c-.4-1.736,1.139-5.7,1.684-7.579,1.207-4.155,1.746-8.387,4.788-10.683a12.1,12.1,0,0,1,2.905-1.76,10.111,10.111,0,0,1,4.516-.187,8.709,8.709,0,0,1,2.736.946c4.051,2.472,2.75,7.38,1.474,11.526-.612,1.988-1.027,4.124-2.579,5.21a7.71,7.71,0,0,1-5.052,1.369c-.794,0-1.323,0-1.684-.421q1.342-4.842,2.684-9.683c.234-.748.845-2.866.526-3.106a.681.681,0,0,0-.947-.052c-.73.988-.937,2.708-1.263,4.052q-1,3.605-2,7.21c-.176.51-.947,3.174-.685,3.368,1.048.416,4.278-.047,5.474.106.937.12,2.242-.355,2.947.158.267.258-.824,4.827-1.1,5.1-.49.483-3.04.1-3.9.1-5.249.01-9.83.316-10.473-4.947H68.56c-.283.862-1.135,4.6-1.737,4.895-.782.341-4.252.074-5.052,0-2.475-.227-4.231.185-5.736-1.474-1.759-1.937-1.334-4.852-.579-7.42q1.921-6.92,3.842-13.842c.716-2.288,1.254-4.575,1.9-6.788a6.121,6.121,0,0,1,.894-2.475q1.106-.025,2.211-.052" transform="translate(-43.974 -29.918)" fill="#fff"/><path d="M144.08,62.7c2.07-7.456,4.151-15.364,6.221-22.819.667-2.08,1.08-4.135,1.737-6.1.369-1.11.317-2.434,1.1-3.106,2.168-.011,4.77-.315,6.631.106.087.123.176.245.264.368q-.764,2.894-1.527,5.789l.105.105c4.335-.09,6.637,2.131,7.263,5.789a7.11,7.11,0,0,1-.591,3.349c-.123.614-.392,1.248-.515,1.862q-1.025,3.472-2.052,6.947c-.511,1.678-1.385,6.811-2.317,7.736-1.5.013-6.448.277-7.21-.21l3.948-14.683q.6-2.447,1.21-4.895l-.159-.105c-1.924-.929-2.22,3.351-2.578,4.421q-1.448,5.078-2.895,10.157a27.089,27.089,0,0,1-1.632,5.316Z" transform="translate(-66.507 -29.962)" fill="#fff"/><path d="M220.619,58.264a7.717,7.717,0,0,1-3.789,4.053,12.42,12.42,0,0,1-4.685.526c-1.514,0-3.3.135-4.368-.316a5.562,5.562,0,0,1-3.211-3.316c-.589-1.745.244-3.746.632-5.1l1.737-6.737a20.234,20.234,0,0,0,1.1-4.473h-.105a3.119,3.119,0,0,0-2.421.052c-1.228,4.424-2.461,9.048-3.841,13.473-.582,1.862-.885,4.78-1.79,6.367a35.512,35.512,0,0,1-7.368-.1c-.241-.686.955-5.025,1.315-6.1,1.4-4.2,2.587-8.994,3.58-13.262.529-2.279,1.026-4.312,2.684-5.421,1.69-1.13,5.235-1.132,7.473-.9.448.048,1.906-.134,2.157.158.469.546-.975,3.109-.578,3.736a8.772,8.772,0,0,0,.894-1.051,9.151,9.151,0,0,1,4.421-2.632c.783-.186,2.416-.43,2.737.263-1.313,4.85-2.342,9.833-3.947,14.684-.345,1.041-1.414,4.8-1.157,5.262a2.21,2.21,0,0,0,1.368-.158q.841-2.789,1.684-5.579c1.107-4.209,2.122-8.366,3.263-12.157q.737-2.658,1.474-5.316a11.727,11.727,0,0,1,.947-3.157l.368-.159c1.951-.014,5.132-.307,6.684.264Z" transform="translate(-78.724 -30.025)" fill="#fff"/><path d="M240.079,32.841c.164-.628.225-1.437.773-1.707l.262-.105c1.608-.016,5.22-.354,6.316.21a25.1,25.1,0,0,1-1.368,5.736l.158.106c.712.348,1.862.013,2.685.158l.262.262c-.016,1.086-1.1,4.8-1.684,5.369-1.043-.017-2.5-.164-3.106.21-1.036,4.042-2.09,8.3-3.368,12.209-.85,2.605-1.115,5.129-2.052,7.579-2.689.057-5.676-3.672-5-6.684Z" transform="translate(-89.167 -30.052)" fill="#fff"/><path d="M128.6,64.722c-.039-1.69.979-4.16,1.47-5.72q1.868-7,3.737-14l-.158-.1c-1.764-.783-2.061,3.023-2.473,4.368l-2.9,10.368c-.509,1.7-.638,3.642-1.474,5.052l-7.637-.07c1.533-4.777,2.524-10.432,4.163-14.982,1-2.766,1.135-5.56,2.685-7.579a8.979,8.979,0,0,1,4.578-2.789l1.736-.315c4.486-.09,7.771,1.589,8.58,5.156.413,1.829-.374,3.912-.842,5.316q-.868,3.211-1.738,6.42c-.611,2.215-1.222,4.365-1.789,6.527-.182.7-.3,2.13-.895,2.42Z" transform="translate(-60.219 -32.08)" fill="#fff"/><path d="M172.427,49.624a7.252,7.252,0,0,1,8.263-3.843c.361.822-.461,2.611-.736,3.474-.6,2.333-1.349,4.694-1.947,7.028a6.814,6.814,0,0,0-.58,2.867c.018.07.035.139.053.209a3.167,3.167,0,0,0,1.21-.1c1-3.337,1.776-6.607,2.789-10.1a16.367,16.367,0,0,0,1-4.158,44.316,44.316,0,0,0-5.843-.158,6.459,6.459,0,0,1-2.789-.369c.44-1.494.879-4.054,1.79-5.367l.211-.053c5.007-.057,11.571-.973,13.263,2.684,1.533,3.315.491,5.859-.316,8.473-1.778,5.754-1.9,13.347-8.1,14.685h-6a7.151,7.151,0,0,1-2.368-1.264c-3.3-2.38-1.962-6.737-.866-10.41Z" transform="translate(-73.108 -32.068)" fill="#fff"/><path d="M108.372,49.056c-.574,1.926-.917,3.7-1.513,5.624q-.107.342-.224.693-.184.918-.368,1.841-.29.922-.58,1.842a2.091,2.091,0,0,1-1.209.263c-.539-.3.208-2.639.472-3.42l1.909-6.723.3-1.067c.2-.65.561-3.092.947-3.369l.947-.158c.1.035.209.071.315.105.315.674-.742,3.5-1,4.368M108,38.952l-1.144.2-1.013.173A7.6,7.6,0,0,0,102,41.635c-1.084,1.388-1.451,3-2.105,4.895-1.11,3.212-1.845,6.649-2.737,10.316-.393,1.613-.953,3.585-.158,5.21a5.926,5.926,0,0,0,3.42,2.632,12.077,12.077,0,0,0,3.316.21,15.9,15.9,0,0,0,3.119-.276c5.677-1.142,6.06-5.705,7.722-11.408a58.076,58.076,0,0,0,1.9-7.21c.788-4.961-3.9-7.14-8.473-7.051" transform="translate(-54.524 -32.08)" fill="#fff"/><path d="M184.165,93.006l1.25-5.985h1.233l-.531,2.543,2.767-2.543h1.65l-2.687,2.348,1.972,3.637h-1.392l-1.479-2.85-1.163,1.017-.383,1.833Z" transform="translate(-76.624 -44.213)" fill="#fff"/><path d="M192.234,93.006l1.254-5.985h4.188l-.213,1h-2.955l-.3,1.436h2.9l-.208,1H194l-.531,2.547Z" transform="translate(-78.661 -44.213)" fill="#fff"/><path d="M198.906,93.007l.2-.944,3.445-4.039H199.76l.207-1h4.315l-.18.94-3.482,4.065c.371-.007.584-.012.641-.012.26,0,.621,0,1.081-.009h1.412l-.209,1Z" transform="translate(-80.345 -44.213)" fill="#fff"/><path d="M206.126,91.385H208.4l-.236,1.129h-2.274Z" transform="translate(-82.107 -45.314)" fill="#fff"/><path d="M212.468,93.006h-1.233l1.045-4.984h-1.754l.208-1h4.714l-.208,1h-1.731Z" transform="translate(-83.277 -44.213)" fill="#fff"/><path d="M216.471,93.006l1.25-5.985h4.436l-.207,1h-3.205l-.285,1.358h3.1l-.207,1h-3.1l-.375,1.624h3.482l-.212,1Z" transform="translate(-84.778 -44.213)" fill="#fff"/><path d="M223.858,93.006l1.252-5.985h1.229l-1.249,5.985Z" transform="translate(-86.642 -44.213)" fill="#fff"/><path d="M227.08,93.006l1.252-5.985h1.229l-1.041,4.984h3.044l-.208,1Z" transform="translate(-87.455 -44.213)" fill="#fff"/><path d="M233.865,93.006l1.249-5.985h4.436l-.207,1h-3.205l-.285,1.358h3.1l-.207,1h-3.1l-.375,1.624h3.483l-.212,1Z" transform="translate(-89.168 -44.213)" fill="#fff"/></g></svg>